<?xml version="1.0" encoding="UTF-8" standalone="no"?>
<!-- Generator: Gravit.io -->
<svg xmlns="http://www.w3.org/2000/svg" xmlns:xlink="http://www.w3.org/1999/xlink" style="isolation:isolate" viewBox="697 434 447.962 460" width="447.962pt" height="460pt"><path d=" M 920.981 584 C 876.798 584 840.981 619.817 840.981 664 C 840.981 708.183 876.798 744 920.981 744 C 965.164 744 1000.981 708.183 1000.981 664 C 1000.849 619.872 965.109 584.132 920.981 584 L 920.981 584 Z  M 1093.701 664 C 1093.66 671.475 1093.112 678.939 1092.061 686.34 L 1140.751 724.46 C 1145.131 728.077 1146.245 734.334 1143.381 739.24 L 1097.321 818.76 C 1094.431 823.619 1088.466 825.699 1083.181 823.69 L 1025.931 800.69 C 1014.01 809.87 1000.964 817.488 987.111 823.36 L 978.551 884.14 C 977.563 889.755 972.741 893.886 967.041 894 L 874.921 894 C 869.333 893.891 864.561 889.939 863.411 884.47 L 854.851 823.69 C 840.96 817.886 827.905 810.256 816.031 801 L 758.781 824 C 753.498 826.011 747.535 823.936 744.641 819.08 L 698.581 739.57 C 695.718 734.664 696.831 728.407 701.211 724.79 L 749.901 686.67 C 748.863 679.157 748.315 671.584 748.261 664 C 748.303 656.525 748.851 649.061 749.901 641.66 L 701.211 603.54 C 696.831 599.923 695.718 593.666 698.581 588.76 L 744.641 509.24 C 747.532 504.381 753.496 502.301 758.781 504.31 L 816.031 527.31 C 827.952 518.13 840.998 510.512 854.851 504.64 L 863.411 443.86 C 864.399 438.245 869.221 434.114 874.921 434 L 967.041 434 C 972.629 434.109 977.402 438.061 978.551 443.53 L 987.111 504.31 C 1001.02 510.11 1014.092 517.74 1025.981 527 L 1083.181 504 C 1088.464 501.989 1094.428 504.064 1097.321 508.92 L 1143.381 588.44 C 1146.245 593.346 1145.131 599.603 1140.751 603.22 L 1092.061 641.34 C 1093.099 648.85 1093.647 656.419 1093.701 664 L 1093.701 664 Z " fill="rgb(43,45,66)"/></svg>