<?xml version="1.0" encoding="UTF-8" standalone="no"?>
<!-- Generator: Gravit.io -->
<svg xmlns="http://www.w3.org/2000/svg" xmlns:xlink="http://www.w3.org/1999/xlink" style="isolation:isolate" viewBox="851 448 479.968 448.063" width="479.968pt" height="448.063pt"><path d=" M 1228.959 896.015 C 1225.591 896.028 1222.305 894.979 1219.569 893.015 L 1090.959 799.775 L 962.349 893.015 C 956.711 897.105 949.075 897.077 943.467 892.947 C 937.859 888.816 935.567 881.533 937.799 874.935 L 987.959 726.365 L 857.959 637.215 C 852.179 633.256 849.647 625.997 851.711 619.302 C 853.774 612.608 859.953 608.034 866.959 608.015 L 1027.339 608.015 L 1075.739 459.065 C 1077.878 452.468 1084.024 448 1090.959 448 C 1097.894 448 1104.04 452.468 1106.179 459.065 L 1154.579 608.065 L 1314.959 608.065 C 1321.974 608.062 1328.173 612.628 1330.25 619.329 C 1332.327 626.029 1329.796 633.301 1324.009 637.265 L 1193.959 726.365 L 1244.089 874.895 C 1245.737 879.774 1244.936 885.147 1241.937 889.333 C 1238.939 893.519 1234.108 896.006 1228.959 896.015 Z " fill="rgb(244,81,30)"/></svg>