<?xml version="1.0" encoding="UTF-8" standalone="no"?>
<!-- Generator: Gravit.io -->
<svg xmlns="http://www.w3.org/2000/svg" xmlns:xlink="http://www.w3.org/1999/xlink" style="isolation:isolate" viewBox="834 428 448.003 448.004" width="448.003pt" height="448.004pt"><g><path d=" M 1250.002 708.43 C 1250.772 707.32 1251.512 706.17 1252.272 705.09 C 1271.613 676.345 1281.962 642.496 1282.002 607.85 C 1282.322 508.55 1198.542 428 1094.942 428 C 1004.582 428 929.202 489.49 911.542 571.12 C 908.893 583.218 907.552 595.565 907.542 607.95 C 907.542 707.35 988.102 790.06 1091.702 790.06 C 1108.172 790.06 1130.362 785.11 1142.532 781.77 C 1154.702 778.43 1166.762 774.02 1169.882 772.83 C 1173.002 771.64 1177.882 770.42 1181.772 771.54 L 1259.192 793.92 C 1260.578 794.329 1262.077 793.959 1263.114 792.952 C 1264.15 791.945 1264.562 790.457 1264.192 789.06 L 1246.472 721.57 C 1245.242 716.57 1245.082 715.63 1250.002 708.43 Z " fill="rgb(247,255,247)"/><path d=" M 1114.542 811.38 C 1106.847 812.611 1099.074 813.296 1091.282 813.43 C 1048.852 813.43 1008.782 802.23 976.282 781.23 C 955.493 768.47 937.447 751.705 923.192 731.91 C 897.112 697.34 882.892 653.4 882.892 607.42 C 882.892 604.29 883.002 601.28 883.112 598.26 C 883.194 596.435 882.124 594.755 880.436 594.057 C 878.748 593.359 876.804 593.792 875.572 595.14 C 826.298 649.054 820.165 729.63 860.712 790.38 C 863.182 794.15 864.582 797.06 864.152 799 L 850.062 871.26 C 849.798 872.658 850.296 874.092 851.371 875.025 C 852.446 875.957 853.935 876.249 855.282 875.79 L 923.282 851.55 C 927.447 849.903 932.096 849.983 936.202 851.77 C 956.552 859.77 979.062 864.69 1001.572 864.69 C 1044.9 864.832 1086.637 848.371 1118.202 818.69 C 1119.54 817.386 1119.88 815.367 1119.044 813.697 C 1118.208 812.027 1116.387 811.09 1114.542 811.38 L 1114.542 811.38 Z " fill="rgb(247,255,247)"/></g></svg>