<?xml version="1.0" encoding="UTF-8" standalone="no"?>
<!-- Generator: Gravit.io -->
<svg xmlns="http://www.w3.org/2000/svg" xmlns:xlink="http://www.w3.org/1999/xlink" style="isolation:isolate" viewBox="870 472 416 416" width="416pt" height="416pt"><path d=" M 1286 852 L 1161.92 727.9 C 1181.916 700.421 1192.673 667.304 1192.64 633.32 C 1192.64 544.37 1120.27 472 1031.32 472 C 942.37 472 870 544.37 870 633.32 C 870 722.27 942.37 794.64 1031.32 794.64 C 1065.304 794.673 1098.421 783.916 1125.9 763.92 L 1250 888 L 1286 852 Z  M 1031.32 743.69 C 986.674 743.694 946.421 716.802 929.334 675.555 C 912.247 634.308 921.69 586.829 953.26 555.26 C 984.829 523.69 1032.308 514.247 1073.555 531.334 C 1114.802 548.421 1141.694 588.674 1141.69 633.32 C 1141.618 694.246 1092.246 743.618 1031.32 743.69 L 1031.32 743.69 Z " fill="rgb(247,255,247)"/></svg>