<?xml version="1.0" encoding="UTF-8" standalone="no"?>
<!-- Generator: Gravit.io -->
<svg xmlns="http://www.w3.org/2000/svg" xmlns:xlink="http://www.w3.org/1999/xlink" style="isolation:isolate" viewBox="784 431 479.969 448.064" width="479.969pt" height="448.064pt"><path d=" M 1161.959 879.015 C 1158.591 879.028 1155.305 877.979 1152.569 876.015 L 1023.959 782.775 L 895.349 876.015 C 889.711 880.105 882.075 880.077 876.467 875.947 C 870.859 871.816 868.567 864.533 870.799 857.935 L 920.959 709.365 L 790.959 620.215 C 785.179 616.256 782.647 608.997 784.711 602.302 C 786.774 595.608 792.953 591.034 799.959 591.015 L 960.339 591.015 L 1008.739 442.065 C 1010.878 435.468 1017.024 431 1023.959 431 C 1030.894 431 1037.04 435.468 1039.179 442.065 L 1087.579 591.065 L 1247.959 591.065 C 1254.974 591.062 1261.173 595.628 1263.25 602.329 C 1265.327 609.029 1262.796 616.301 1257.009 620.265 L 1126.959 709.365 L 1177.089 857.895 C 1178.737 862.774 1177.936 868.147 1174.937 872.333 C 1171.939 876.519 1167.108 879.006 1161.959 879.015 Z " fill="rgb(56,142,60)"/></svg>