<?xml version="1.0" encoding="UTF-8" standalone="no"?>
<!-- Generator: Gravit.io -->
<svg xmlns="http://www.w3.org/2000/svg" xmlns:xlink="http://www.w3.org/1999/xlink" style="isolation:isolate" viewBox="0 0 500 500" width="500pt" height="500pt"><mask id="_mask_7YU8dI37tmscutXBfa9UVjs1FQZdDiAA" x="-200%" y="-200%" width="400%" height="400%"><rect x="-200%" y="-200%" width="400%" height="400%" style="fill:white;"/><path d=" M 467.538 203.385 L 300.5 203.385 L 250 48 L 199.5 203.385 L 32.462 203.385 L 168.423 296.615 L 115.981 452 L 250 354.885 L 384.019 452 L 331.577 296.615 L 467.538 203.385 Z " fill="black" stroke="none"/></mask><path d=" M 467.538 203.385 L 300.5 203.385 L 250 48 L 199.5 203.385 L 32.462 203.385 L 168.423 296.615 L 115.981 452 L 250 354.885 L 384.019 452 L 331.577 296.615 L 467.538 203.385 Z " fill="none" mask="url(#_mask_7YU8dI37tmscutXBfa9UVjs1FQZdDiAA)" vector-effect="non-scaling-stroke" stroke-width="64" stroke="rgb(244,81,30)" stroke-linejoin="round" stroke-linecap="butt" stroke-miterlimit="4"/><path d=" M 467.538 203.385 L 300.5 203.385 L 250 48 L 199.5 203.385 L 32.462 203.385 L 168.423 296.615 L 115.981 452 L 250 354.885 L 384.019 452 L 331.577 296.615 L 467.538 203.385 Z " fill="none"/></svg>