<?xml version="1.0" encoding="UTF-8" standalone="no"?>
<!-- Generator: Gravit.io -->
<svg xmlns="http://www.w3.org/2000/svg" xmlns:xlink="http://www.w3.org/1999/xlink" style="isolation:isolate" viewBox="973 422 384 448" width="384pt" height="448pt"><g><path d=" M 1205 454 L 1125 454 C 1122.871 453.976 1120.822 454.811 1119.316 456.316 C 1117.811 457.822 1116.976 459.871 1117 462 L 1117 486 L 1213 486 L 1213 462 C 1213.024 459.871 1212.189 457.822 1210.684 456.316 C 1209.178 454.811 1207.129 453.976 1205 454 L 1205 454 Z " fill="none"/><path d=" M 1201 454 L 1129 454 C 1126.791 454 1125 455.791 1125 458 L 1125 486 L 1205 486 L 1205 458 C 1205 455.791 1203.209 454 1201 454 Z " fill="none"/><path d=" M 1356.55 486 L 1245 486 L 1245 438 C 1245 429.163 1237.837 422 1229 422 L 1101 422 C 1092.163 422 1085 429.163 1085 438 L 1085 486 L 973.45 486 L 973 526 L 1006 526 L 1026.09 840 C 1027.145 856.853 1041.114 869.986 1058 870 L 1272 870 C 1288.876 869.998 1302.849 856.891 1303.93 840.05 L 1324 526 L 1357 526 L 1356.55 486 Z  M 1085 806 L 1076 550 L 1109 550 L 1118 806 L 1085 806 Z  M 1181 806 L 1149 806 L 1149 550 L 1181 550 L 1181 806 Z  M 1205 486 L 1125 486 L 1125 458 C 1125 455.791 1126.791 454 1129 454 L 1201 454 C 1203.209 454 1205 455.791 1205 458 L 1205 486 Z  M 1245 806 L 1212 806 L 1221 550 L 1254 550 L 1245 806 Z " fill="rgb(247,255,247)"/></g></svg>