<?xml version="1.0" encoding="UTF-8" standalone="no"?>
<!-- Generator: Gravit.io -->
<svg xmlns="http://www.w3.org/2000/svg" xmlns:xlink="http://www.w3.org/1999/xlink" style="isolation:isolate" viewBox="926 341 48 32" width="48pt" height="32pt"><g><g><g><path d=" M 970 373 L 930 373 C 927.794 373 926 371.206 926 369 L 926 345 C 926 342.794 927.794 341 930 341 L 970 341 C 972.206 341 974 342.794 974 345 L 974 369 C 974 371.206 972.206 373 970 373 Z  M 930 343 C 928.897 343 928 343.897 928 345 L 928 369 C 928 370.103 928.897 371 930 371 L 970 371 C 971.103 371 972 370.103 972 369 L 972 345 C 972 343.897 971.103 343 970 343 L 930 343 Z " fill="rgb(255,255,255)"/></g><g><path d=" M 950 362.191 L 932.457 350.84 C 931.993 350.539 931.86 349.921 932.16 349.457 C 932.46 348.993 933.079 348.861 933.543 349.16 L 950 359.809 L 966.457 349.16 C 966.921 348.861 967.54 348.993 967.84 349.457 C 968.14 349.921 968.007 350.539 967.543 350.84 L 950 362.191 Z " fill="rgb(255,255,255)"/></g><g><path d=" M 932.001 367 C 931.678 367 931.36 366.844 931.168 366.555 C 930.861 366.095 930.985 365.475 931.445 365.168 L 940.445 359.168 C 940.905 358.861 941.526 358.985 941.832 359.445 C 942.139 359.905 942.015 360.525 941.555 360.832 L 932.555 366.832 C 932.384 366.945 932.191 367 932.001 367 Z " fill="rgb(255,255,255)"/></g><g><path d=" M 967.999 367 C 967.809 367 967.616 366.945 967.445 366.832 L 965.138 365.294 L 958.445 360.832 C 957.985 360.525 957.861 359.905 958.168 359.445 C 958.474 358.985 959.094 358.861 959.555 359.168 L 968.555 365.168 C 969.015 365.475 969.139 366.095 968.832 366.555 C 968.64 366.844 968.322 367 967.999 367 Z " fill="rgb(255,255,255)"/></g></g></g></svg>